<svg xmlns="http://www.w3.org/2000/svg" xmlns:xlink="http://www.w3.org/1999/xlink" version="1.1" x="0px" y="0px" viewBox="0 0 100 125" style="enable-background:new 0 0 100 100;" xml:space="preserve"><title>Arrow 39.3</title><desc>Created with Sketch.</desc><g><g><path d="M40.6,54.7c-0.4-0.4-0.3-0.7,0.3-0.7h32.4c0.5,0,1-0.5,1-1v-6c0-0.6-0.4-1-1-1H40.9    c-0.5,0-0.7-0.3-0.3-0.7l14.6-14.6c0.4-0.4,0.3-0.7-0.3-0.7h-9.3c-0.6,0-1.3,0.3-1.7,0.7L25.3,49.3c-0.4,0.4-0.4,1,0,1.4    l18.6,18.6c0.4,0.4,1.2,0.7,1.7,0.7h9.3c0.6,0,0.7-0.3,0.3-0.7L40.6,54.7z"/></g></g><text x="0" y="115" fill="#000000" font-size="5px" font-weight="bold" font-family="'Helvetica Neue', Helvetica, Arial-Unicode, Arial, Sans-serif">Created by Landan Lloyd</text><text x="0" y="120" fill="#000000" font-size="5px" font-weight="bold" font-family="'Helvetica Neue', Helvetica, Arial-Unicode, Arial, Sans-serif">from the Noun Project</text></svg>